<svg xmlns="http://www.w3.org/2000/svg" width="384" height="330" viewBox="0 0 384 330">
    <g fill="none" fill-rule="evenodd" transform="translate(-52 -95)">
        <rect width="384" height="330" x="52" y="95" rx="3"/>
        <path fill="#ECECEC" fill-rule="nonzero" d="M299.955 200.607l-11.805 57.362c-.373 1.753-1.864 3.006-3.604 3.006-.249 0-.497 0-.746-.126-1.988-.375-3.355-2.38-2.858-4.383l11.06-53.605-71.33-14.654-1.74 8.016a3.887 3.887 0 0 1-4.474 2.88c-1.989-.5-3.231-2.504-2.858-4.508l2.61-11.648c.496-2.004 2.36-3.256 4.349-2.88l78.538 16.03c.994.251 1.864.752 2.361 1.629.497.877.621 1.879.497 2.88zm-23.238 68.383c0 2.756-2.237 5.01-4.971 5.01h-80.775c-2.734 0-4.971-2.254-4.971-5.01v-61.37c0-2.755 2.237-5.01 4.97-5.01h80.776c2.734 0 4.97 2.255 4.97 5.01v61.37zm-80.775-56.36v30.936l21.001-17.159c1.616-1.378 4.225-1.378 5.84.125l23.612 21.041 9.817-8.516c1.616-1.378 3.48-1.378 5.095 0l4.101 4.258V212.63h-69.466zm69.59 51.35v-9.142l-6.959-6.638-9.444 8.516a4.3 4.3 0 0 1-5.592 0l-23.984-21.166-23.611 19.413v9.017h69.59zm-20.628-30.935c4.225 0 7.58-3.382 7.58-7.64 0-4.258-3.48-7.64-7.58-7.64-4.225 0-7.58 3.382-7.58 7.64-.125 4.133 3.355 7.64 7.58 7.64z"/>
        <path fill="#CCC" d="M168.79 305h-1.6v-4.107h-4.132V305h-1.606v-9.242h1.606v3.846h4.132v-3.846h1.6V305zm7.3-4.126h-3.796v2.844h4.437V305h-6.043v-9.242h5.998v1.295h-4.392v2.551h3.796v1.27zm8.753-3.821h-2.882V305h-1.593v-7.947h-2.857v-1.295h7.332v1.295zm9.109-.42c.791 0 1.481.162 2.07.483.587.322 1.043.77 1.367 1.346.324.575.486 1.227.486 1.955 0 .72-.162 1.366-.486 1.94a3.408 3.408 0 0 1-1.365 1.339c-.586.32-1.277.479-2.072.479v1.206h-1.543v-1.206h-.146a4.066 4.066 0 0 1-1.948-.483 3.382 3.382 0 0 1-1.359-1.33c-.321-.569-.482-1.213-.482-1.932 0-.732.163-1.388.489-1.968.325-.58.78-1.03 1.364-1.349.584-.32 1.278-.48 2.082-.48v-1.256h1.543v1.257zm-1.657 1.29c-.72 0-1.283.218-1.691.656-.409.438-.613 1.055-.613 1.85 0 .762.198 1.36.593 1.794.396.434.956.655 1.68.663h.145v-4.964h-.114zm1.657 0v4.963h.108c.723 0 1.287-.219 1.691-.657.405-.438.607-1.042.607-1.812 0-.783-.202-1.394-.607-1.834-.404-.44-.972-.66-1.704-.66h-.095zm12.689 2.697c0 .906-.157 1.7-.47 2.384-.313.683-.76 1.208-1.342 1.574-.582.366-1.252.549-2.01.549-.748 0-1.416-.183-2.002-.55-.586-.365-1.039-.887-1.359-1.564-.319-.677-.48-1.458-.485-2.342v-.52c0-.902.16-1.698.48-2.387.319-.69.77-1.218 1.351-1.584.582-.366 1.25-.55 2.003-.55.753 0 1.42.182 2.003.544.581.361 1.031.882 1.348 1.561.318.68.479 1.47.483 2.371v.514zm-1.606-.482c0-1.024-.194-1.81-.58-2.355-.388-.546-.937-.82-1.648-.82-.694 0-1.237.273-1.628.817-.392.543-.592 1.312-.6 2.307v.533c0 1.016.198 1.8.593 2.355.396.554.945.832 1.648.832.71 0 1.257-.271 1.64-.813.383-.542.575-1.333.575-2.374v-.482zm9.344-3.085h-2.882V305h-1.593v-7.947h-2.857v-1.295h7.332v1.295zm8.41 3.567c0 .906-.156 1.7-.47 2.384-.313.683-.76 1.208-1.342 1.574-.582.366-1.251.549-2.009.549-.749 0-1.417-.183-2.003-.55-.586-.365-1.039-.887-1.358-1.564-.32-.677-.481-1.458-.486-2.342v-.52c0-.902.16-1.698.48-2.387.32-.69.77-1.218 1.352-1.584.582-.366 1.25-.55 2.002-.55.754 0 1.421.182 2.003.544.582.361 1.032.882 1.349 1.561.317.68.478 1.47.482 2.371v.514zm-1.606-.482c0-1.024-.193-1.81-.58-2.355-.388-.546-.937-.82-1.648-.82-.694 0-1.236.273-1.628.817-.391.543-.591 1.312-.6 2.307v.533c0 1.016.198 1.8.594 2.355.395.554.945.832 1.647.832.711 0 1.258-.271 1.64-.813.384-.542.575-1.333.575-2.374v-.482zm9.116-3.085h-4.266V305h-1.6v-9.242h5.866v1.295zm2.939 4.513V305h-1.606v-9.242h3.535c1.033 0 1.853.269 2.46.806s.91 1.248.91 2.133c0 .905-.296 1.61-.891 2.114-.595.503-1.427.755-2.498.755h-1.91zm0-1.289h1.93c.57 0 1.006-.134 1.307-.403.3-.268.45-.657.45-1.165 0-.499-.152-.898-.456-1.196-.305-.298-.724-.452-1.257-.46h-1.974v3.224zm10.746 2.571h-3.58l-.749 2.152h-1.67l3.492-9.242h1.44l3.498 9.242h-1.675l-.756-2.152zm-3.13-1.295h2.68l-1.34-3.834-1.34 3.834zm11.649-4.92c.791 0 1.48.162 2.069.483.588.322 1.044.77 1.368 1.346.324.575.486 1.227.486 1.955 0 .72-.162 1.366-.486 1.94a3.408 3.408 0 0 1-1.365 1.339c-.586.32-1.277.479-2.072.479v1.206h-1.543v-1.206h-.146a4.066 4.066 0 0 1-1.949-.483 3.382 3.382 0 0 1-1.358-1.33c-.322-.569-.482-1.213-.482-1.932 0-.732.163-1.388.488-1.968.326-.58.781-1.03 1.365-1.349.584-.32 1.278-.48 2.082-.48v-1.256h1.543v1.257zm-1.657 1.29c-.72 0-1.283.218-1.692.656-.408.438-.612 1.055-.612 1.85 0 .762.198 1.36.593 1.794.396.434.956.655 1.68.663h.145v-4.964h-.114zm1.657 0v4.963h.108c.723 0 1.287-.219 1.691-.657.404-.438.606-1.042.606-1.812 0-.783-.202-1.394-.606-1.834-.404-.44-.972-.66-1.704-.66h-.095zm10.975-2.165h1.606V305h-1.606v-6.583L259.422 305h-1.606v-9.242h1.606v6.589l4.056-6.59zm9.191 0h1.606V305h-1.606v-6.583L268.613 305h-1.606v-9.242h1.606v6.589l4.056-6.59zm13.064 1.295h-2.882V305h-1.593v-7.947H278.4v-1.295h7.332v1.295zm8.41 3.567c0 .906-.156 1.7-.47 2.384-.313.683-.76 1.208-1.342 1.574-.582.366-1.251.549-2.009.549-.749 0-1.417-.183-2.003-.55-.586-.365-1.039-.887-1.358-1.564-.32-.677-.481-1.458-.486-2.342v-.52c0-.902.16-1.698.48-2.387.32-.69.77-1.218 1.352-1.584.582-.366 1.25-.55 2.002-.55.754 0 1.421.182 2.003.544.582.361 1.032.882 1.349 1.561.317.68.478 1.47.482 2.371v.514zm-1.606-.482c0-1.024-.193-1.81-.58-2.355-.388-.546-.937-.82-1.648-.82-.694 0-1.236.273-1.628.817-.391.543-.591 1.312-.6 2.307v.533c0 1.016.198 1.8.594 2.355.395.554.945.832 1.647.832.711 0 1.258-.271 1.64-.813.384-.542.575-1.333.575-2.374v-.482zm3.206 4.862v-9.242h3.167c1.046 0 1.841.21 2.387.628.546.42.819 1.043.819 1.873 0 .423-.114.804-.343 1.142-.228.339-.563.601-1.003.787.5.136.886.39 1.159.765s.41.825.41 1.35c0 .867-.28 1.533-.836 1.999-.556.465-1.353.698-2.39.698h-3.37zm1.606-4.17v2.888h1.784c.503 0 .897-.125 1.18-.375.284-.25.426-.596.426-1.04 0-.961-.491-1.452-1.473-1.473h-1.917zm0-1.181h1.574c.5 0 .89-.113 1.171-.34.282-.226.422-.547.422-.961 0-.457-.13-.787-.39-.99-.26-.204-.665-.305-1.216-.305h-1.561v2.596zm11.768 3.2h-3.58l-.749 2.151h-1.67l3.492-9.242h1.441l3.498 9.242h-1.676l-.756-2.152zm-3.129-1.296h2.679l-1.34-3.834-1.339 3.834zm8.214.013V305h-1.606v-9.242h3.536c1.032 0 1.852.269 2.46.806.607.537.91 1.248.91 2.133 0 .905-.297 1.61-.892 2.114-.594.503-1.427.755-2.497.755h-1.911zm0-1.289h1.93c.57 0 1.007-.134 1.307-.403.3-.268.45-.657.45-1.165 0-.499-.151-.898-.456-1.196-.305-.298-.724-.452-1.257-.46h-1.974v3.224zm10.746 2.571h-3.58L320.62 305h-1.669l3.491-9.242h1.441L327.38 305h-1.676l-.756-2.152zm-3.129-1.295h2.679l-1.34-3.834-1.339 3.834z"/>
    </g>
</svg>
