<?xml version="1.0" encoding="utf-8"?>
<!-- Generator: Adobe Illustrator 16.0.0, SVG Export Plug-In . SVG Version: 6.00 Build 0)  -->
<!DOCTYPE svg PUBLIC "-//W3C//DTD SVG 1.1//EN" "http://www.w3.org/Graphics/SVG/1.1/DTD/svg11.dtd">
<svg version="1.1" id="Layer_1" xmlns="http://www.w3.org/2000/svg" xmlns:xlink="http://www.w3.org/1999/xlink" x="0px" y="0px"
	 width="1200px" height="1200px" viewBox="0 0 1200 1200" enable-background="new 0 0 1200 1200" xml:space="preserve">
<path fill="none" d="M1173.58,535.207H438.42v148.82H1175v-148.82H1173.58z M1143.4,665.898h12.867v1.902h-5.311v14.676h-2.238
	v-14.676h-5.314L1143.4,665.898z"/>
<path d="M1148.715,682.479h2.244v-14.678h5.309v-1.9H1143.4v1.9h5.314V682.479L1148.715,682.479z"/>
<path fill="none" d="M1173.58,535.207H438.42v148.82H1175v-148.82H1173.58z M1158.332,665.898h3.092l4.807,14.156l4.648-14.156
	h2.705v16.578h-1.855v-13.471l-4.467,13.471h-2.221l-4.465-13.471v13.471h-2.238L1158.332,665.898L1158.332,665.898z"/>
<path d="M1160.574,669.008l4.465,13.471h2.221l4.467-13.471v13.471h1.854V665.9h-2.703l-4.648,14.158l-4.807-14.158h-3.09v16.578
	h2.24v-13.471H1160.574z M791.851,642.768v-68.541c0-13.982,6.526-23.996,20.445-23.996h85.855c0.523,0,1.03-0.521,1.03-1.039
	v-13.637c-0.005-0.119-0.032-0.238-0.08-0.348H794.125c-22.754,2.893-33.869,18.75-33.869,39.02v68.539
	c0,13.982-6.709,23.996-20.44,23.996h-90.668c-0.517,0-1.032,0.348-1.032,1.035v13.641c0,0.566,0.348,1.002,0.755,1.145h102.943
	C778.641,681.875,791.851,664.746,791.851,642.768L791.851,642.768z M439.122,682.58h30.145c0.467-0.184,0.769-0.639,0.754-1.139
	v-43.684c0-13.98,7.898-23.652,19.404-23.652h124.166c27.993,0,41.563-17.264,41.563-39.881c0-20.268-11.104-36.125-33.87-39.018
	h-182.72c-0.054,0.113-0.143,0.203-0.143,0.348v13.637c0,0.691,0.343,1.037,1.029,1.037h163.664
	c13.911,0,20.438,10.014,20.438,23.996c0,13.986-6.526,24-20.438,24H473.627c-20.092,0-35.205,17.094-35.205,39.535v43.684
	C438.42,682.004,438.663,682.439,439.122,682.58L439.122,682.58z"/>
<g>
	<path fill="none" d="M925.282,650.881h138.264c0.506,0,1.031-0.52,1.031-1.037v-85.111c0-1.898-1.72-2.072-2.586-1.381
		l-137.555,85.113c-0.873,0.52-1.216,1.035-1.031,1.729C923.563,650.537,924.091,650.881,925.282,650.881z"/>
	<path d="M898.68,666.766h164.868c0.506,0,0.85,0.344,0.85,0.691v13.984c0,0.689,0.522,1.035,1.028,1.035h29.718
		c0.525,0,1.025-0.346,1.025-1.035v-13.641c0-0.52,0.526-1.035,1.031-1.035h29.534c0.688,0,1.03-0.52,1.03-1.033v-13.814
		c0-0.52-0.343-1.035-1.03-1.035H1097.2c-0.505,0-1.031-0.521-1.031-1.033V550.23c0-8.129-3.019-13.307-8.099-15.023h-8.6
		c-2.68,0.688-5.593,1.922-8.717,3.797L893.185,648.639c-6.871,4.314-9.279,9.146-7.561,12.771
		C886.999,664.521,890.938,666.766,898.68,666.766L898.68,666.766z M924.437,648.465l137.556-85.113
		c0.869-0.691,2.588-0.518,2.588,1.381v85.117c0,0.52-0.525,1.033-1.031,1.033H925.288c-1.191,0-1.723-0.34-1.88-0.689
		C923.22,649.5,923.563,648.982,924.437,648.465L924.437,648.465z"/>
</g>
<g>
	<path d="M140.187,480.186c13.396,2.498,26.563,6.064,39.668,9.783c7.492,2.176,14.971,4.428,22.396,6.828
		c11.666,3.715,23.282,7.922,33.849,14.197c4.733,2.875,9.279,6.123,13.164,10.082c4.208,4.131,7.656,8.975,10.186,14.303
		c4.606,9.621,6.186,20.371,6.651,30.939c0.219,6.896,0.206,13.854-1.084,20.66c-1.069,5.916-2.973,11.75-6.137,16.889
		c-2.794,4.535-6.68,8.461-11.395,10.99c-4.523,2.439-9.7,3.6-14.829,3.496c-7.779,0.08-15.327-2.398-22.31-5.65
		c-0.127-23.215-0.02-46.436-0.055-69.646c-0.048-4.201,0.238-8.445-0.611-12.588c-0.596-3.211-1.904-6.447-4.427-8.625
		c-1.669-1.508-3.837-2.357-6.014-2.818c-2.202-0.418-4.55,0.518-5.913,2.285c-2.268,2.83-2.861,6.59-2.963,10.113
		c-0.02,62.152,0.022,124.309-0.02,186.455c-16.722-5.297-33.441-10.604-50.159-15.916
		C140.17,628.037,140.178,554.113,140.187,480.186L140.187,480.186z M65.034,637.469c21.799-7.717,43.574-15.512,65.382-23.201
		c0.034,8.557,0,17.117,0.014,25.684c-0.014,1.162,0.061,2.328-0.084,3.482c-17.236,6.109-34.44,12.326-51.659,18.477
		c-2.388,0.902-4.837,1.922-6.678,3.744c-0.857,0.855-1.557,2.121-1.088,3.346c0.589,1.441,2.063,2.229,3.42,2.82
		c3.778,1.537,7.907,1.756,11.932,1.938c4.486-0.07,8.993-0.406,13.387-1.375c2.971-0.586,5.829-1.586,8.66-2.648
		c7.357-2.664,14.717-5.344,22.086-7.98c0.053,7.24,0.009,14.484,0.022,21.732c-0.022,1.447,0.066,2.904-0.078,4.346
		c-9.05,1.625-18.208,2.729-27.407,2.875c-18.524,0.418-37.092-2.449-54.688-8.24c-5.77-1.672-11.504-3.898-16.325-7.563
		c-2.651-2.053-5.025-4.635-6.232-7.811c-1.012-2.691-0.938-5.797,0.322-8.395c1.215-2.59,3.337-4.635,5.674-6.227
		c5.405-3.732,11.372-6.582,17.413-9.119C54.317,641.135,59.718,639.406,65.034,637.469L65.034,637.469z"/>
	<path d="M240.426,627.719c4.944-0.57,9.919-0.707,14.89-0.885c16.351,0.063,32.787,2.096,48.428,7.002
		c3.068,0.934,6.041,2.143,9.098,3.113c5.451,1.992,10.907,4.406,15.271,8.326c2.619,2.391,4.881,5.611,4.91,9.289
		c0.156,2.994-1.197,5.867-3.142,8.072c-3.694,4.145-8.579,6.992-13.481,9.477c-5.222,2.662-10.832,4.379-16.307,6.406
		c-33.413,11.996-66.829,23.988-100.233,36.002c-0.007-9.361,0.009-18.719-0.007-28.068c0.05-0.375-0.153-1.027,0.372-1.125
		c25.423-9.043,50.839-18.113,76.26-27.186c3.437-1.285,7.139-2.217,10.055-4.547c1.192-0.938,2.362-2.428,1.776-4.037
		c-0.61-1.406-2.069-2.184-3.412-2.768c-3.806-1.506-7.948-1.797-11.996-1.912c-6.336,0.043-12.729,0.824-18.755,2.855
		c-18.107,6.348-36.182,12.77-54.293,19.094c0.002-10.049-0.007-20.092,0.004-30.139
		C212.963,632.09,226.647,629.305,240.426,627.719L240.426,627.719z M314.702,696.947c3.954-0.49,8.083,1.279,10.452,4.482
		c2.586,3.311,3.06,8.078,1.232,11.855c-1.846,3.922-6.06,6.668-10.427,6.523c-4.018,0.09-7.91-2.248-9.887-5.715
		c-1.786-3.051-2.001-6.961-0.618-10.205C307.012,700.141,310.675,697.404,314.702,696.947L314.702,696.947z M313.842,699.061
		c-2.232,0.52-4.203,1.828-5.545,3.688c-1.602,2.213-2.179,5.004-1.587,7.67c0.536,2.457,2.021,4.604,4.134,5.969
		c3.208,2.107,7.706,1.992,10.777-0.322c3.167-2.24,4.671-6.533,3.581-10.254c-0.672-2.516-2.471-4.658-4.733-5.904
		C318.457,698.844,316.056,698.535,313.842,699.061L313.842,699.061z"/>
	<path d="M311.103,701.75c2.062-0.012,4.127,0,6.19-0.006c1.167,0.018,2.451,0.287,3.279,1.186c0.831,0.938,0.898,2.305,0.67,3.48
		c-0.13,0.775-0.814,1.236-1.311,1.777c0.431,0.385,0.983,0.74,1.086,1.365c0.238,1.191-0.014,2.439,0.368,3.605
		c0.241,0.414,0.485,0.83,0.503,1.32c-0.854,0.025-1.708,0.01-2.563,0.023c-0.576-1.357-0.145-2.881-0.505-4.277
		c-0.143-0.568-0.731-0.924-1.292-0.906c-1.396-0.057-2.796-0.018-4.185-0.018c-0.022,1.732,0.048,3.471-0.044,5.201
		c-0.728-0.014-1.456-0.014-2.184,0.002C311.078,710.248,311.103,706,311.103,701.75L311.103,701.75z M313.339,703.771v3.523
		c1.247,0.01,2.495,0.02,3.746,0.006c0.62-0.006,1.34-0.121,1.742-0.648c0.414-0.686,0.427-1.541,0.034-2.238
		c-0.322-0.535-1.001-0.59-1.56-0.625C315.979,703.746,314.659,703.771,313.339,703.771L313.339,703.771z"/>
</g>
</svg>
